# xmcd CD database file
#
# Track frame offsets:
#	150
#	20605
#	44941
#	59184
#	72355
#	88353
#	96308
#	107146
#	118433
#	129820
#	144757
#	160967
#	170896
#	186606
#
# Disc length: 2675 seconds
#
# Revision: 0
# Processed by: cddbd v1.5.2PL0 Copyright (c) Steve Scherf et al.
# Submitted via: CDex 1.50beta10
#
DISCID=e40a710e
DTITLE=Last Mile Ramblers - While They Last
DYEAR=1974
DGENRE=Country
TTITLE0=Ghost Riders In The Sky
TTITLE1=Phantom 309
TTITLE2=Out Of Control
TTITLE3=Nine-Pound Hammer
TTITLE4=Come A Little Closer
TTITLE5=Fresh Fish
TTITLE6=Tennessee
TTITLE7=Roly Poly
TTITLE8=Cotton-Eyed Joe
TTITLE9=Future On Ice
TTITLE10=The Golden Inn Song
TTITLE11=Diesel Smoke (Dangerous Curves)
TTITLE12=Good-Hearted Woman
TTITLE13=The Hurrier I Go (The Behinder I Get)
EXTD=YEAR: 1974
EXTT0=
EXTT1=
EXTT2=
EXTT3=
EXTT4=
EXTT5=
EXTT6=
EXTT7=
EXTT8=
EXTT9=
EXTT10=
EXTT11=
EXTT12=
EXTT13=
PLAYORDER=
